<svg width="16" height="16" viewBox="0 0 16 16" fill="none" xmlns="http://www.w3.org/2000/svg">
<g id="Frame 14">
<path id="Union" d="M7.24406 0.900472L7.62203 1.22779V1.22779L7.24406 0.900472ZM8.75592 0.900451L9.13388 0.573119L9.13388 0.573119L8.75592 0.900451ZM1.97256 6.98764L1.59459 6.66032H1.59459L1.97256 6.98764ZM5.53866 8.64228H6.03866V8.14228H5.53866V8.64228ZM10.4613 8.64228V8.14228H9.96135V8.64228H10.4613ZM14.0277 6.98762L13.6497 7.31495L14.0277 6.98762ZM7.62203 1.22779C7.82141 0.997559 8.17857 0.997555 8.37796 1.22778L9.13388 0.573119C8.53571 -0.117566 7.46424 -0.117551 6.86609 0.57315L7.62203 1.22779ZM2.35053 7.31496L7.62203 1.22779L6.86609 0.57315L1.59459 6.66032L2.35053 7.31496ZM2.7285 8.14228C2.30013 8.14228 2.0701 7.63879 2.35053 7.31496L1.59459 6.66032C0.753299 7.63179 1.44338 9.14228 2.7285 9.14228V8.14228ZM5.53866 8.14228H2.7285V9.14228H5.53866V8.14228ZM6.03866 13.7956V8.64228H5.03866V13.7956H6.03866ZM6.53866 14.2956C6.26252 14.2956 6.03866 14.0718 6.03866 13.7956H5.03866C5.03866 14.6241 5.71024 15.2956 6.53866 15.2956V14.2956ZM9.46135 14.2956H6.53866V15.2956H9.46135V14.2956ZM9.96135 13.7956C9.96135 14.0718 9.73749 14.2956 9.46135 14.2956V15.2956C10.2898 15.2956 10.9613 14.6241 10.9613 13.7956H9.96135ZM9.96135 8.64228V13.7956H10.9613V8.64228H9.96135ZM13.2718 8.14228H10.4613V9.14228H13.2718V8.14228ZM13.6497 7.31495C13.9302 7.63877 13.7002 8.14228 13.2718 8.14228V9.14228C14.5569 9.14228 15.247 7.63175 14.4057 6.66029L13.6497 7.31495ZM8.37796 1.22778L13.6497 7.31495L14.4057 6.66029L9.13388 0.573119L8.37796 1.22778Z" fill="white"/>
</g>
</svg>
